G04 #@! TF.GenerationSoftware,KiCad,Pcbnew,(5.0.0)*
G04 #@! TF.CreationDate,2018-10-24T09:39:06-04:00*
G04 #@! TF.ProjectId,Interlock,496E7465726C6F636B2E6B696361645F,rev?*
G04 #@! TF.SameCoordinates,Original*
G04 #@! TF.FileFunction,Copper,L2,Bot,Signal*
G04 #@! TF.FilePolarity,Positive*
%FSLAX46Y46*%
G04 Gerber Fmt 4.6, Leading zero omitted, Abs format (unit mm)*
G04 Created by KiCad (PCBNEW (5.0.0)) date 10/24/18 09:39:06*
%MOMM*%
%LPD*%
G01*
G04 APERTURE LIST*
G04 #@! TA.AperFunction,NonConductor*
%ADD10C,0.100000*%
G04 #@! TD*
G04 #@! TA.AperFunction,NonConductor*
%ADD11C,0.300000*%
G04 #@! TD*
G04 #@! TA.AperFunction,SMDPad,CuDef*
%ADD12R,3.960000X3.960000*%
G04 #@! TD*
G04 #@! TA.AperFunction,SMDPad,CuDef*
%ADD13R,3.270000X5.080000*%
G04 #@! TD*
G04 #@! TA.AperFunction,ComponentPad*
%ADD14C,4.000000*%
G04 #@! TD*
G04 #@! TA.AperFunction,ComponentPad*
%ADD15C,1.800000*%
G04 #@! TD*
G04 #@! TA.AperFunction,ComponentPad*
%ADD16R,1.800000X1.800000*%
G04 #@! TD*
G04 #@! TA.AperFunction,Conductor*
%ADD17C,1.000000*%
G04 #@! TD*
G04 APERTURE END LIST*
D10*
X140118761Y-53012952D02*
X140118761Y-52612952D01*
X140118761Y-52803428D02*
X139890190Y-52803428D01*
X139890190Y-53012952D02*
X139890190Y-52612952D01*
X139718761Y-52898666D02*
X139528285Y-52898666D01*
X139756857Y-53012952D02*
X139623523Y-52612952D01*
X139490190Y-53012952D01*
X139128285Y-52974857D02*
X139147333Y-52993904D01*
X139204476Y-53012952D01*
X139242571Y-53012952D01*
X139299714Y-52993904D01*
X139337809Y-52955809D01*
X139356857Y-52917714D01*
X139375904Y-52841523D01*
X139375904Y-52784380D01*
X139356857Y-52708190D01*
X139337809Y-52670095D01*
X139299714Y-52632000D01*
X139242571Y-52612952D01*
X139204476Y-52612952D01*
X139147333Y-52632000D01*
X139128285Y-52651047D01*
X138956857Y-53012952D02*
X138956857Y-52612952D01*
X138728285Y-53012952D02*
X138899714Y-52784380D01*
X138728285Y-52612952D02*
X138956857Y-52841523D01*
X138309238Y-52612952D02*
X138080666Y-52612952D01*
X138194952Y-53012952D02*
X138194952Y-52612952D01*
X137947333Y-53012952D02*
X137947333Y-52612952D01*
X137947333Y-52803428D02*
X137718761Y-52803428D01*
X137718761Y-53012952D02*
X137718761Y-52612952D01*
X137528285Y-52803428D02*
X137394952Y-52803428D01*
X137337809Y-53012952D02*
X137528285Y-53012952D01*
X137528285Y-52612952D01*
X137337809Y-52612952D01*
X136861619Y-53012952D02*
X136861619Y-52612952D01*
X136709238Y-52612952D01*
X136671142Y-52632000D01*
X136652095Y-52651047D01*
X136633047Y-52689142D01*
X136633047Y-52746285D01*
X136652095Y-52784380D01*
X136671142Y-52803428D01*
X136709238Y-52822476D01*
X136861619Y-52822476D01*
X136271142Y-53012952D02*
X136461619Y-53012952D01*
X136461619Y-52612952D01*
X136156857Y-52898666D02*
X135966380Y-52898666D01*
X136194952Y-53012952D02*
X136061619Y-52612952D01*
X135928285Y-53012952D01*
X135794952Y-53012952D02*
X135794952Y-52612952D01*
X135566380Y-53012952D01*
X135566380Y-52612952D01*
X135375904Y-52803428D02*
X135242571Y-52803428D01*
X135185428Y-53012952D02*
X135375904Y-53012952D01*
X135375904Y-52612952D01*
X135185428Y-52612952D01*
X135071142Y-52612952D02*
X134842571Y-52612952D01*
X134956857Y-53012952D02*
X134956857Y-52612952D01*
X134709238Y-52974857D02*
X134690190Y-52993904D01*
X134709238Y-53012952D01*
X134728285Y-52993904D01*
X134709238Y-52974857D01*
X134709238Y-53012952D01*
X134709238Y-52860571D02*
X134728285Y-52632000D01*
X134709238Y-52612952D01*
X134690190Y-52632000D01*
X134709238Y-52860571D01*
X134709238Y-52612952D01*
X151341380Y-79174952D02*
X151341380Y-78774952D01*
X150903285Y-78908285D02*
X150750904Y-78908285D01*
X150846142Y-78774952D02*
X150846142Y-79117809D01*
X150827095Y-79155904D01*
X150789000Y-79174952D01*
X150750904Y-79174952D01*
X150617571Y-79174952D02*
X150617571Y-78774952D01*
X150446142Y-79174952D02*
X150446142Y-78965428D01*
X150465190Y-78927333D01*
X150503285Y-78908285D01*
X150560428Y-78908285D01*
X150598523Y-78927333D01*
X150617571Y-78946380D01*
X150198523Y-79174952D02*
X150236619Y-79155904D01*
X150255666Y-79136857D01*
X150274714Y-79098761D01*
X150274714Y-78984476D01*
X150255666Y-78946380D01*
X150236619Y-78927333D01*
X150198523Y-78908285D01*
X150141380Y-78908285D01*
X150103285Y-78927333D01*
X150084238Y-78946380D01*
X150065190Y-78984476D01*
X150065190Y-79098761D01*
X150084238Y-79136857D01*
X150103285Y-79155904D01*
X150141380Y-79174952D01*
X150198523Y-79174952D01*
X149722333Y-78908285D02*
X149722333Y-79174952D01*
X149893761Y-78908285D02*
X149893761Y-79117809D01*
X149874714Y-79155904D01*
X149836619Y-79174952D01*
X149779476Y-79174952D01*
X149741380Y-79155904D01*
X149722333Y-79136857D01*
X149360428Y-78908285D02*
X149360428Y-79232095D01*
X149379476Y-79270190D01*
X149398523Y-79289238D01*
X149436619Y-79308285D01*
X149493761Y-79308285D01*
X149531857Y-79289238D01*
X149360428Y-79155904D02*
X149398523Y-79174952D01*
X149474714Y-79174952D01*
X149512809Y-79155904D01*
X149531857Y-79136857D01*
X149550904Y-79098761D01*
X149550904Y-78984476D01*
X149531857Y-78946380D01*
X149512809Y-78927333D01*
X149474714Y-78908285D01*
X149398523Y-78908285D01*
X149360428Y-78927333D01*
X149169952Y-79174952D02*
X149169952Y-78774952D01*
X148998523Y-79174952D02*
X148998523Y-78965428D01*
X149017571Y-78927333D01*
X149055666Y-78908285D01*
X149112809Y-78908285D01*
X149150904Y-78927333D01*
X149169952Y-78946380D01*
X148865190Y-78908285D02*
X148712809Y-78908285D01*
X148808047Y-78774952D02*
X148808047Y-79117809D01*
X148789000Y-79155904D01*
X148750904Y-79174952D01*
X148712809Y-79174952D01*
X148312809Y-78908285D02*
X148236619Y-79174952D01*
X148160428Y-78984476D01*
X148084238Y-79174952D01*
X148008047Y-78908285D01*
X147855666Y-79174952D02*
X147855666Y-78774952D01*
X147684238Y-79174952D02*
X147684238Y-78965428D01*
X147703285Y-78927333D01*
X147741380Y-78908285D01*
X147798523Y-78908285D01*
X147836619Y-78927333D01*
X147855666Y-78946380D01*
X147322333Y-79174952D02*
X147322333Y-78965428D01*
X147341380Y-78927333D01*
X147379476Y-78908285D01*
X147455666Y-78908285D01*
X147493761Y-78927333D01*
X147322333Y-79155904D02*
X147360428Y-79174952D01*
X147455666Y-79174952D01*
X147493761Y-79155904D01*
X147512809Y-79117809D01*
X147512809Y-79079714D01*
X147493761Y-79041619D01*
X147455666Y-79022571D01*
X147360428Y-79022571D01*
X147322333Y-79003523D01*
X147189000Y-78908285D02*
X147036619Y-78908285D01*
X147131857Y-78774952D02*
X147131857Y-79117809D01*
X147112809Y-79155904D01*
X147074714Y-79174952D01*
X147036619Y-79174952D01*
X146598523Y-79174952D02*
X146598523Y-78774952D01*
X146389000Y-78774952D02*
X146427095Y-78851142D01*
X146046142Y-79174952D02*
X146046142Y-78774952D01*
X146046142Y-79155904D02*
X146084238Y-79174952D01*
X146160428Y-79174952D01*
X146198523Y-79155904D01*
X146217571Y-79136857D01*
X146236619Y-79098761D01*
X146236619Y-78984476D01*
X146217571Y-78946380D01*
X146198523Y-78927333D01*
X146160428Y-78908285D01*
X146084238Y-78908285D01*
X146046142Y-78927333D01*
X145379476Y-79174952D02*
X145379476Y-78774952D01*
X145379476Y-79155904D02*
X145417571Y-79174952D01*
X145493761Y-79174952D01*
X145531857Y-79155904D01*
X145550904Y-79136857D01*
X145569952Y-79098761D01*
X145569952Y-78984476D01*
X145550904Y-78946380D01*
X145531857Y-78927333D01*
X145493761Y-78908285D01*
X145417571Y-78908285D01*
X145379476Y-78927333D01*
X145131857Y-79174952D02*
X145169952Y-79155904D01*
X145189000Y-79136857D01*
X145208047Y-79098761D01*
X145208047Y-78984476D01*
X145189000Y-78946380D01*
X145169952Y-78927333D01*
X145131857Y-78908285D01*
X145074714Y-78908285D01*
X145036619Y-78927333D01*
X145017571Y-78946380D01*
X144998523Y-78984476D01*
X144998523Y-79098761D01*
X145017571Y-79136857D01*
X145036619Y-79155904D01*
X145074714Y-79174952D01*
X145131857Y-79174952D01*
X144560428Y-78908285D02*
X144484238Y-79174952D01*
X144408047Y-78984476D01*
X144331857Y-79174952D01*
X144255666Y-78908285D01*
X143931857Y-79174952D02*
X143931857Y-78965428D01*
X143950904Y-78927333D01*
X143989000Y-78908285D01*
X144065190Y-78908285D01*
X144103285Y-78927333D01*
X143931857Y-79155904D02*
X143969952Y-79174952D01*
X144065190Y-79174952D01*
X144103285Y-79155904D01*
X144122333Y-79117809D01*
X144122333Y-79079714D01*
X144103285Y-79041619D01*
X144065190Y-79022571D01*
X143969952Y-79022571D01*
X143931857Y-79003523D01*
X143760428Y-79155904D02*
X143722333Y-79174952D01*
X143646142Y-79174952D01*
X143608047Y-79155904D01*
X143589000Y-79117809D01*
X143589000Y-79098761D01*
X143608047Y-79060666D01*
X143646142Y-79041619D01*
X143703285Y-79041619D01*
X143741380Y-79022571D01*
X143760428Y-78984476D01*
X143760428Y-78965428D01*
X143741380Y-78927333D01*
X143703285Y-78908285D01*
X143646142Y-78908285D01*
X143608047Y-78927333D01*
X143112809Y-79174952D02*
X143112809Y-78774952D01*
X142903285Y-78774952D02*
X142941380Y-78851142D01*
X142560428Y-79174952D02*
X142560428Y-78774952D01*
X142560428Y-79155904D02*
X142598523Y-79174952D01*
X142674714Y-79174952D01*
X142712809Y-79155904D01*
X142731857Y-79136857D01*
X142750904Y-79098761D01*
X142750904Y-78984476D01*
X142731857Y-78946380D01*
X142712809Y-78927333D01*
X142674714Y-78908285D01*
X142598523Y-78908285D01*
X142560428Y-78927333D01*
X142065190Y-78908285D02*
X142065190Y-79308285D01*
X142065190Y-78927333D02*
X142027095Y-78908285D01*
X141950904Y-78908285D01*
X141912809Y-78927333D01*
X141893761Y-78946380D01*
X141874714Y-78984476D01*
X141874714Y-79098761D01*
X141893761Y-79136857D01*
X141912809Y-79155904D01*
X141950904Y-79174952D01*
X142027095Y-79174952D01*
X142065190Y-79155904D01*
X141703285Y-79174952D02*
X141703285Y-78908285D01*
X141703285Y-78984476D02*
X141684238Y-78946380D01*
X141665190Y-78927333D01*
X141627095Y-78908285D01*
X141589000Y-78908285D01*
X141303285Y-79155904D02*
X141341380Y-79174952D01*
X141417571Y-79174952D01*
X141455666Y-79155904D01*
X141474714Y-79117809D01*
X141474714Y-78965428D01*
X141455666Y-78927333D01*
X141417571Y-78908285D01*
X141341380Y-78908285D01*
X141303285Y-78927333D01*
X141284238Y-78965428D01*
X141284238Y-79003523D01*
X141474714Y-79041619D01*
X141169952Y-78908285D02*
X141017571Y-78908285D01*
X141112809Y-78774952D02*
X141112809Y-79117809D01*
X141093761Y-79155904D01*
X141055666Y-79174952D01*
X141017571Y-79174952D01*
X140731857Y-79155904D02*
X140769952Y-79174952D01*
X140846142Y-79174952D01*
X140884238Y-79155904D01*
X140903285Y-79117809D01*
X140903285Y-78965428D01*
X140884238Y-78927333D01*
X140846142Y-78908285D01*
X140769952Y-78908285D01*
X140731857Y-78927333D01*
X140712809Y-78965428D01*
X140712809Y-79003523D01*
X140903285Y-79041619D01*
X140541380Y-78908285D02*
X140541380Y-79174952D01*
X140541380Y-78946380D02*
X140522333Y-78927333D01*
X140484238Y-78908285D01*
X140427095Y-78908285D01*
X140389000Y-78927333D01*
X140369952Y-78965428D01*
X140369952Y-79174952D01*
X140008047Y-79174952D02*
X140008047Y-78774952D01*
X140008047Y-79155904D02*
X140046142Y-79174952D01*
X140122333Y-79174952D01*
X140160428Y-79155904D01*
X140179476Y-79136857D01*
X140198523Y-79098761D01*
X140198523Y-78984476D01*
X140179476Y-78946380D01*
X140160428Y-78927333D01*
X140122333Y-78908285D01*
X140046142Y-78908285D01*
X140008047Y-78927333D01*
X139512809Y-79174952D02*
X139512809Y-78774952D01*
X139055666Y-78908285D02*
X138979476Y-79174952D01*
X138903285Y-78984476D01*
X138827095Y-79174952D01*
X138750904Y-78908285D01*
X138427095Y-79174952D02*
X138427095Y-78965428D01*
X138446142Y-78927333D01*
X138484238Y-78908285D01*
X138560428Y-78908285D01*
X138598523Y-78927333D01*
X138427095Y-79155904D02*
X138465190Y-79174952D01*
X138560428Y-79174952D01*
X138598523Y-79155904D01*
X138617571Y-79117809D01*
X138617571Y-79079714D01*
X138598523Y-79041619D01*
X138560428Y-79022571D01*
X138465190Y-79022571D01*
X138427095Y-79003523D01*
X138255666Y-79155904D02*
X138217571Y-79174952D01*
X138141380Y-79174952D01*
X138103285Y-79155904D01*
X138084238Y-79117809D01*
X138084238Y-79098761D01*
X138103285Y-79060666D01*
X138141380Y-79041619D01*
X138198523Y-79041619D01*
X138236619Y-79022571D01*
X138255666Y-78984476D01*
X138255666Y-78965428D01*
X138236619Y-78927333D01*
X138198523Y-78908285D01*
X138141380Y-78908285D01*
X138103285Y-78927333D01*
X137550904Y-79174952D02*
X137589000Y-79155904D01*
X137608047Y-79136857D01*
X137627095Y-79098761D01*
X137627095Y-78984476D01*
X137608047Y-78946380D01*
X137589000Y-78927333D01*
X137550904Y-78908285D01*
X137493761Y-78908285D01*
X137455666Y-78927333D01*
X137436619Y-78946380D01*
X137417571Y-78984476D01*
X137417571Y-79098761D01*
X137436619Y-79136857D01*
X137455666Y-79155904D01*
X137493761Y-79174952D01*
X137550904Y-79174952D01*
X137246142Y-78908285D02*
X137246142Y-79174952D01*
X137246142Y-78946380D02*
X137227095Y-78927333D01*
X137189000Y-78908285D01*
X137131857Y-78908285D01*
X137093761Y-78927333D01*
X137074714Y-78965428D01*
X137074714Y-79174952D01*
X136731857Y-79155904D02*
X136769952Y-79174952D01*
X136846142Y-79174952D01*
X136884238Y-79155904D01*
X136903285Y-79117809D01*
X136903285Y-78965428D01*
X136884238Y-78927333D01*
X136846142Y-78908285D01*
X136769952Y-78908285D01*
X136731857Y-78927333D01*
X136712809Y-78965428D01*
X136712809Y-79003523D01*
X136903285Y-79041619D01*
X136179476Y-79174952D02*
X136217571Y-79155904D01*
X136236619Y-79136857D01*
X136255666Y-79098761D01*
X136255666Y-78984476D01*
X136236619Y-78946380D01*
X136217571Y-78927333D01*
X136179476Y-78908285D01*
X136122333Y-78908285D01*
X136084238Y-78927333D01*
X136065190Y-78946380D01*
X136046142Y-78984476D01*
X136046142Y-79098761D01*
X136065190Y-79136857D01*
X136084238Y-79155904D01*
X136122333Y-79174952D01*
X136179476Y-79174952D01*
X135931857Y-78908285D02*
X135779476Y-78908285D01*
X135874714Y-79174952D02*
X135874714Y-78832095D01*
X135855666Y-78794000D01*
X135817571Y-78774952D01*
X135779476Y-78774952D01*
X135398523Y-78908285D02*
X135246142Y-78908285D01*
X135341380Y-78774952D02*
X135341380Y-79117809D01*
X135322333Y-79155904D01*
X135284238Y-79174952D01*
X135246142Y-79174952D01*
X135112809Y-79174952D02*
X135112809Y-78774952D01*
X134941380Y-79174952D02*
X134941380Y-78965428D01*
X134960428Y-78927333D01*
X134998523Y-78908285D01*
X135055666Y-78908285D01*
X135093761Y-78927333D01*
X135112809Y-78946380D01*
X134693761Y-79174952D02*
X134731857Y-79155904D01*
X134750904Y-79136857D01*
X134769952Y-79098761D01*
X134769952Y-78984476D01*
X134750904Y-78946380D01*
X134731857Y-78927333D01*
X134693761Y-78908285D01*
X134636619Y-78908285D01*
X134598523Y-78927333D01*
X134579476Y-78946380D01*
X134560428Y-78984476D01*
X134560428Y-79098761D01*
X134579476Y-79136857D01*
X134598523Y-79155904D01*
X134636619Y-79174952D01*
X134693761Y-79174952D01*
X134408047Y-79155904D02*
X134369952Y-79174952D01*
X134293761Y-79174952D01*
X134255666Y-79155904D01*
X134236619Y-79117809D01*
X134236619Y-79098761D01*
X134255666Y-79060666D01*
X134293761Y-79041619D01*
X134350904Y-79041619D01*
X134389000Y-79022571D01*
X134408047Y-78984476D01*
X134408047Y-78965428D01*
X134389000Y-78927333D01*
X134350904Y-78908285D01*
X134293761Y-78908285D01*
X134255666Y-78927333D01*
X133912809Y-79155904D02*
X133950904Y-79174952D01*
X134027095Y-79174952D01*
X134065190Y-79155904D01*
X134084238Y-79117809D01*
X134084238Y-78965428D01*
X134065190Y-78927333D01*
X134027095Y-78908285D01*
X133950904Y-78908285D01*
X133912809Y-78927333D01*
X133893761Y-78965428D01*
X133893761Y-79003523D01*
X134084238Y-79041619D01*
X133246142Y-79174952D02*
X133246142Y-78774952D01*
X133246142Y-79155904D02*
X133284238Y-79174952D01*
X133360428Y-79174952D01*
X133398523Y-79155904D01*
X133417571Y-79136857D01*
X133436619Y-79098761D01*
X133436619Y-78984476D01*
X133417571Y-78946380D01*
X133398523Y-78927333D01*
X133360428Y-78908285D01*
X133284238Y-78908285D01*
X133246142Y-78927333D01*
X132903285Y-79155904D02*
X132941380Y-79174952D01*
X133017571Y-79174952D01*
X133055666Y-79155904D01*
X133074714Y-79117809D01*
X133074714Y-78965428D01*
X133055666Y-78927333D01*
X133017571Y-78908285D01*
X132941380Y-78908285D01*
X132903285Y-78927333D01*
X132884238Y-78965428D01*
X132884238Y-79003523D01*
X133074714Y-79041619D01*
X132541380Y-79174952D02*
X132541380Y-78965428D01*
X132560428Y-78927333D01*
X132598523Y-78908285D01*
X132674714Y-78908285D01*
X132712809Y-78927333D01*
X132541380Y-79155904D02*
X132579476Y-79174952D01*
X132674714Y-79174952D01*
X132712809Y-79155904D01*
X132731857Y-79117809D01*
X132731857Y-79079714D01*
X132712809Y-79041619D01*
X132674714Y-79022571D01*
X132579476Y-79022571D01*
X132541380Y-79003523D01*
X132408047Y-78908285D02*
X132255666Y-78908285D01*
X132350904Y-79174952D02*
X132350904Y-78832095D01*
X132331857Y-78794000D01*
X132293761Y-78774952D01*
X132255666Y-78774952D01*
X132122333Y-79022571D02*
X131817571Y-79022571D01*
X131627095Y-79174952D02*
X131627095Y-78908285D01*
X131627095Y-78946380D02*
X131608047Y-78927333D01*
X131569952Y-78908285D01*
X131512809Y-78908285D01*
X131474714Y-78927333D01*
X131455666Y-78965428D01*
X131455666Y-79174952D01*
X131455666Y-78965428D02*
X131436619Y-78927333D01*
X131398523Y-78908285D01*
X131341380Y-78908285D01*
X131303285Y-78927333D01*
X131284238Y-78965428D01*
X131284238Y-79174952D01*
X130922333Y-78908285D02*
X130922333Y-79174952D01*
X131093761Y-78908285D02*
X131093761Y-79117809D01*
X131074714Y-79155904D01*
X131036619Y-79174952D01*
X130979476Y-79174952D01*
X130941380Y-79155904D01*
X130922333Y-79136857D01*
X130789000Y-78908285D02*
X130636619Y-78908285D01*
X130731857Y-78774952D02*
X130731857Y-79117809D01*
X130712809Y-79155904D01*
X130674714Y-79174952D01*
X130636619Y-79174952D01*
X130350904Y-79155904D02*
X130389000Y-79174952D01*
X130465190Y-79174952D01*
X130503285Y-79155904D01*
X130522333Y-79117809D01*
X130522333Y-78965428D01*
X130503285Y-78927333D01*
X130465190Y-78908285D01*
X130389000Y-78908285D01*
X130350904Y-78927333D01*
X130331857Y-78965428D01*
X130331857Y-79003523D01*
X130522333Y-79041619D01*
X130179476Y-79155904D02*
X130141380Y-79174952D01*
X130065190Y-79174952D01*
X130027095Y-79155904D01*
X130008047Y-79117809D01*
X130008047Y-79098761D01*
X130027095Y-79060666D01*
X130065190Y-79041619D01*
X130122333Y-79041619D01*
X130160428Y-79022571D01*
X130179476Y-78984476D01*
X130179476Y-78965428D01*
X130160428Y-78927333D01*
X130122333Y-78908285D01*
X130065190Y-78908285D01*
X130027095Y-78927333D01*
X129836619Y-79136857D02*
X129817571Y-79155904D01*
X129836619Y-79174952D01*
X129855666Y-79155904D01*
X129836619Y-79136857D01*
X129836619Y-79174952D01*
X146693857Y-65471666D02*
X146503380Y-65471666D01*
X146731952Y-65585952D02*
X146598619Y-65185952D01*
X146465285Y-65585952D01*
X146141476Y-65585952D02*
X146331952Y-65585952D01*
X146331952Y-65185952D01*
X145817666Y-65585952D02*
X146008142Y-65585952D01*
X146008142Y-65185952D01*
X145303380Y-65395476D02*
X145303380Y-65585952D01*
X145436714Y-65185952D02*
X145303380Y-65395476D01*
X145170047Y-65185952D01*
X144960523Y-65185952D02*
X144884333Y-65185952D01*
X144846238Y-65205000D01*
X144808142Y-65243095D01*
X144789095Y-65319285D01*
X144789095Y-65452619D01*
X144808142Y-65528809D01*
X144846238Y-65566904D01*
X144884333Y-65585952D01*
X144960523Y-65585952D01*
X144998619Y-65566904D01*
X145036714Y-65528809D01*
X145055761Y-65452619D01*
X145055761Y-65319285D01*
X145036714Y-65243095D01*
X144998619Y-65205000D01*
X144960523Y-65185952D01*
X144617666Y-65185952D02*
X144617666Y-65509761D01*
X144598619Y-65547857D01*
X144579571Y-65566904D01*
X144541476Y-65585952D01*
X144465285Y-65585952D01*
X144427190Y-65566904D01*
X144408142Y-65547857D01*
X144389095Y-65509761D01*
X144389095Y-65185952D01*
X143970047Y-65585952D02*
X144103380Y-65395476D01*
X144198619Y-65585952D02*
X144198619Y-65185952D01*
X144046238Y-65185952D01*
X144008142Y-65205000D01*
X143989095Y-65224047D01*
X143970047Y-65262142D01*
X143970047Y-65319285D01*
X143989095Y-65357380D01*
X144008142Y-65376428D01*
X144046238Y-65395476D01*
X144198619Y-65395476D01*
X143360523Y-65376428D02*
X143303380Y-65395476D01*
X143284333Y-65414523D01*
X143265285Y-65452619D01*
X143265285Y-65509761D01*
X143284333Y-65547857D01*
X143303380Y-65566904D01*
X143341476Y-65585952D01*
X143493857Y-65585952D01*
X143493857Y-65185952D01*
X143360523Y-65185952D01*
X143322428Y-65205000D01*
X143303380Y-65224047D01*
X143284333Y-65262142D01*
X143284333Y-65300238D01*
X143303380Y-65338333D01*
X143322428Y-65357380D01*
X143360523Y-65376428D01*
X143493857Y-65376428D01*
X143112904Y-65471666D02*
X142922428Y-65471666D01*
X143151000Y-65585952D02*
X143017666Y-65185952D01*
X142884333Y-65585952D01*
X142770047Y-65566904D02*
X142712904Y-65585952D01*
X142617666Y-65585952D01*
X142579571Y-65566904D01*
X142560523Y-65547857D01*
X142541476Y-65509761D01*
X142541476Y-65471666D01*
X142560523Y-65433571D01*
X142579571Y-65414523D01*
X142617666Y-65395476D01*
X142693857Y-65376428D01*
X142731952Y-65357380D01*
X142751000Y-65338333D01*
X142770047Y-65300238D01*
X142770047Y-65262142D01*
X142751000Y-65224047D01*
X142731952Y-65205000D01*
X142693857Y-65185952D01*
X142598619Y-65185952D01*
X142541476Y-65205000D01*
X142370047Y-65376428D02*
X142236714Y-65376428D01*
X142179571Y-65585952D02*
X142370047Y-65585952D01*
X142370047Y-65185952D01*
X142179571Y-65185952D01*
X141722428Y-65471666D02*
X141531952Y-65471666D01*
X141760523Y-65585952D02*
X141627190Y-65185952D01*
X141493857Y-65585952D01*
X141131952Y-65585952D02*
X141265285Y-65395476D01*
X141360523Y-65585952D02*
X141360523Y-65185952D01*
X141208142Y-65185952D01*
X141170047Y-65205000D01*
X141151000Y-65224047D01*
X141131952Y-65262142D01*
X141131952Y-65319285D01*
X141151000Y-65357380D01*
X141170047Y-65376428D01*
X141208142Y-65395476D01*
X141360523Y-65395476D01*
X140960523Y-65376428D02*
X140827190Y-65376428D01*
X140770047Y-65585952D02*
X140960523Y-65585952D01*
X140960523Y-65185952D01*
X140770047Y-65185952D01*
X140160523Y-65376428D02*
X140103380Y-65395476D01*
X140084333Y-65414523D01*
X140065285Y-65452619D01*
X140065285Y-65509761D01*
X140084333Y-65547857D01*
X140103380Y-65566904D01*
X140141476Y-65585952D01*
X140293857Y-65585952D01*
X140293857Y-65185952D01*
X140160523Y-65185952D01*
X140122428Y-65205000D01*
X140103380Y-65224047D01*
X140084333Y-65262142D01*
X140084333Y-65300238D01*
X140103380Y-65338333D01*
X140122428Y-65357380D01*
X140160523Y-65376428D01*
X140293857Y-65376428D01*
X139893857Y-65376428D02*
X139760523Y-65376428D01*
X139703380Y-65585952D02*
X139893857Y-65585952D01*
X139893857Y-65185952D01*
X139703380Y-65185952D01*
X139341476Y-65585952D02*
X139531952Y-65585952D01*
X139531952Y-65185952D01*
X139131952Y-65185952D02*
X139055761Y-65185952D01*
X139017666Y-65205000D01*
X138979571Y-65243095D01*
X138960523Y-65319285D01*
X138960523Y-65452619D01*
X138979571Y-65528809D01*
X139017666Y-65566904D01*
X139055761Y-65585952D01*
X139131952Y-65585952D01*
X139170047Y-65566904D01*
X139208142Y-65528809D01*
X139227190Y-65452619D01*
X139227190Y-65319285D01*
X139208142Y-65243095D01*
X139170047Y-65205000D01*
X139131952Y-65185952D01*
X138789095Y-65585952D02*
X138789095Y-65185952D01*
X138560523Y-65585952D01*
X138560523Y-65185952D01*
X138160523Y-65205000D02*
X138198619Y-65185952D01*
X138255761Y-65185952D01*
X138312904Y-65205000D01*
X138351000Y-65243095D01*
X138370047Y-65281190D01*
X138389095Y-65357380D01*
X138389095Y-65414523D01*
X138370047Y-65490714D01*
X138351000Y-65528809D01*
X138312904Y-65566904D01*
X138255761Y-65585952D01*
X138217666Y-65585952D01*
X138160523Y-65566904D01*
X138141476Y-65547857D01*
X138141476Y-65414523D01*
X138217666Y-65414523D01*
X137722428Y-65185952D02*
X137493857Y-65185952D01*
X137608142Y-65585952D02*
X137608142Y-65185952D01*
X137284333Y-65185952D02*
X137208142Y-65185952D01*
X137170047Y-65205000D01*
X137131952Y-65243095D01*
X137112904Y-65319285D01*
X137112904Y-65452619D01*
X137131952Y-65528809D01*
X137170047Y-65566904D01*
X137208142Y-65585952D01*
X137284333Y-65585952D01*
X137322428Y-65566904D01*
X137360523Y-65528809D01*
X137379571Y-65452619D01*
X137379571Y-65319285D01*
X137360523Y-65243095D01*
X137322428Y-65205000D01*
X137284333Y-65185952D01*
X136636714Y-65185952D02*
X136636714Y-65509761D01*
X136617666Y-65547857D01*
X136598619Y-65566904D01*
X136560523Y-65585952D01*
X136484333Y-65585952D01*
X136446238Y-65566904D01*
X136427190Y-65547857D01*
X136408142Y-65509761D01*
X136408142Y-65185952D01*
X136236714Y-65566904D02*
X136179571Y-65585952D01*
X136084333Y-65585952D01*
X136046238Y-65566904D01*
X136027190Y-65547857D01*
X136008142Y-65509761D01*
X136008142Y-65471666D01*
X136027190Y-65433571D01*
X136046238Y-65414523D01*
X136084333Y-65395476D01*
X136160523Y-65376428D01*
X136198619Y-65357380D01*
X136217666Y-65338333D01*
X136236714Y-65300238D01*
X136236714Y-65262142D01*
X136217666Y-65224047D01*
X136198619Y-65205000D01*
X136160523Y-65185952D01*
X136065285Y-65185952D01*
X136008142Y-65205000D01*
X146706571Y-69376904D02*
X146649428Y-69395952D01*
X146554190Y-69395952D01*
X146516095Y-69376904D01*
X146497047Y-69357857D01*
X146478000Y-69319761D01*
X146478000Y-69281666D01*
X146497047Y-69243571D01*
X146516095Y-69224523D01*
X146554190Y-69205476D01*
X146630380Y-69186428D01*
X146668476Y-69167380D01*
X146687523Y-69148333D01*
X146706571Y-69110238D01*
X146706571Y-69072142D01*
X146687523Y-69034047D01*
X146668476Y-69015000D01*
X146630380Y-68995952D01*
X146535142Y-68995952D01*
X146478000Y-69015000D01*
X146249428Y-69395952D02*
X146287523Y-69376904D01*
X146306571Y-69357857D01*
X146325619Y-69319761D01*
X146325619Y-69205476D01*
X146306571Y-69167380D01*
X146287523Y-69148333D01*
X146249428Y-69129285D01*
X146192285Y-69129285D01*
X146154190Y-69148333D01*
X146135142Y-69167380D01*
X146116095Y-69205476D01*
X146116095Y-69319761D01*
X146135142Y-69357857D01*
X146154190Y-69376904D01*
X146192285Y-69395952D01*
X146249428Y-69395952D01*
X145944666Y-69395952D02*
X145944666Y-69129285D01*
X145944666Y-69167380D02*
X145925619Y-69148333D01*
X145887523Y-69129285D01*
X145830380Y-69129285D01*
X145792285Y-69148333D01*
X145773238Y-69186428D01*
X145773238Y-69395952D01*
X145773238Y-69186428D02*
X145754190Y-69148333D01*
X145716095Y-69129285D01*
X145658952Y-69129285D01*
X145620857Y-69148333D01*
X145601809Y-69186428D01*
X145601809Y-69395952D01*
X145258952Y-69376904D02*
X145297047Y-69395952D01*
X145373238Y-69395952D01*
X145411333Y-69376904D01*
X145430380Y-69338809D01*
X145430380Y-69186428D01*
X145411333Y-69148333D01*
X145373238Y-69129285D01*
X145297047Y-69129285D01*
X145258952Y-69148333D01*
X145239904Y-69186428D01*
X145239904Y-69224523D01*
X145430380Y-69262619D01*
X145125619Y-69129285D02*
X144973238Y-69129285D01*
X145068476Y-68995952D02*
X145068476Y-69338809D01*
X145049428Y-69376904D01*
X145011333Y-69395952D01*
X144973238Y-69395952D01*
X144839904Y-69395952D02*
X144839904Y-69129285D01*
X144839904Y-68995952D02*
X144858952Y-69015000D01*
X144839904Y-69034047D01*
X144820857Y-69015000D01*
X144839904Y-68995952D01*
X144839904Y-69034047D01*
X144649428Y-69395952D02*
X144649428Y-69129285D01*
X144649428Y-69167380D02*
X144630380Y-69148333D01*
X144592285Y-69129285D01*
X144535142Y-69129285D01*
X144497047Y-69148333D01*
X144478000Y-69186428D01*
X144478000Y-69395952D01*
X144478000Y-69186428D02*
X144458952Y-69148333D01*
X144420857Y-69129285D01*
X144363714Y-69129285D01*
X144325619Y-69148333D01*
X144306571Y-69186428D01*
X144306571Y-69395952D01*
X143963714Y-69376904D02*
X144001809Y-69395952D01*
X144078000Y-69395952D01*
X144116095Y-69376904D01*
X144135142Y-69338809D01*
X144135142Y-69186428D01*
X144116095Y-69148333D01*
X144078000Y-69129285D01*
X144001809Y-69129285D01*
X143963714Y-69148333D01*
X143944666Y-69186428D01*
X143944666Y-69224523D01*
X144135142Y-69262619D01*
X143792285Y-69376904D02*
X143754190Y-69395952D01*
X143678000Y-69395952D01*
X143639904Y-69376904D01*
X143620857Y-69338809D01*
X143620857Y-69319761D01*
X143639904Y-69281666D01*
X143678000Y-69262619D01*
X143735142Y-69262619D01*
X143773238Y-69243571D01*
X143792285Y-69205476D01*
X143792285Y-69186428D01*
X143773238Y-69148333D01*
X143735142Y-69129285D01*
X143678000Y-69129285D01*
X143639904Y-69148333D01*
X143430380Y-69376904D02*
X143430380Y-69395952D01*
X143449428Y-69434047D01*
X143468476Y-69453095D01*
X142954190Y-69395952D02*
X142954190Y-68995952D01*
X142287523Y-69395952D02*
X142287523Y-68995952D01*
X142287523Y-69376904D02*
X142325619Y-69395952D01*
X142401809Y-69395952D01*
X142439904Y-69376904D01*
X142458952Y-69357857D01*
X142478000Y-69319761D01*
X142478000Y-69205476D01*
X142458952Y-69167380D01*
X142439904Y-69148333D01*
X142401809Y-69129285D01*
X142325619Y-69129285D01*
X142287523Y-69148333D01*
X142097047Y-69395952D02*
X142097047Y-69129285D01*
X142097047Y-69205476D02*
X142078000Y-69167380D01*
X142058952Y-69148333D01*
X142020857Y-69129285D01*
X141982761Y-69129285D01*
X141697047Y-69376904D02*
X141735142Y-69395952D01*
X141811333Y-69395952D01*
X141849428Y-69376904D01*
X141868476Y-69338809D01*
X141868476Y-69186428D01*
X141849428Y-69148333D01*
X141811333Y-69129285D01*
X141735142Y-69129285D01*
X141697047Y-69148333D01*
X141678000Y-69186428D01*
X141678000Y-69224523D01*
X141868476Y-69262619D01*
X141335142Y-69395952D02*
X141335142Y-69186428D01*
X141354190Y-69148333D01*
X141392285Y-69129285D01*
X141468476Y-69129285D01*
X141506571Y-69148333D01*
X141335142Y-69376904D02*
X141373238Y-69395952D01*
X141468476Y-69395952D01*
X141506571Y-69376904D01*
X141525619Y-69338809D01*
X141525619Y-69300714D01*
X141506571Y-69262619D01*
X141468476Y-69243571D01*
X141373238Y-69243571D01*
X141335142Y-69224523D01*
X141144666Y-69395952D02*
X141144666Y-69129285D01*
X141144666Y-69167380D02*
X141125619Y-69148333D01*
X141087523Y-69129285D01*
X141030380Y-69129285D01*
X140992285Y-69148333D01*
X140973238Y-69186428D01*
X140973238Y-69395952D01*
X140973238Y-69186428D02*
X140954190Y-69148333D01*
X140916095Y-69129285D01*
X140858952Y-69129285D01*
X140820857Y-69148333D01*
X140801809Y-69186428D01*
X140801809Y-69395952D01*
X140135142Y-69395952D02*
X140135142Y-69186428D01*
X140154190Y-69148333D01*
X140192285Y-69129285D01*
X140268476Y-69129285D01*
X140306571Y-69148333D01*
X140135142Y-69376904D02*
X140173238Y-69395952D01*
X140268476Y-69395952D01*
X140306571Y-69376904D01*
X140325619Y-69338809D01*
X140325619Y-69300714D01*
X140306571Y-69262619D01*
X140268476Y-69243571D01*
X140173238Y-69243571D01*
X140135142Y-69224523D01*
X139944666Y-69395952D02*
X139944666Y-68995952D01*
X139944666Y-69148333D02*
X139906571Y-69129285D01*
X139830380Y-69129285D01*
X139792285Y-69148333D01*
X139773238Y-69167380D01*
X139754190Y-69205476D01*
X139754190Y-69319761D01*
X139773238Y-69357857D01*
X139792285Y-69376904D01*
X139830380Y-69395952D01*
X139906571Y-69395952D01*
X139944666Y-69376904D01*
X139525619Y-69395952D02*
X139563714Y-69376904D01*
X139582761Y-69357857D01*
X139601809Y-69319761D01*
X139601809Y-69205476D01*
X139582761Y-69167380D01*
X139563714Y-69148333D01*
X139525619Y-69129285D01*
X139468476Y-69129285D01*
X139430380Y-69148333D01*
X139411333Y-69167380D01*
X139392285Y-69205476D01*
X139392285Y-69319761D01*
X139411333Y-69357857D01*
X139430380Y-69376904D01*
X139468476Y-69395952D01*
X139525619Y-69395952D01*
X139049428Y-69129285D02*
X139049428Y-69395952D01*
X139220857Y-69129285D02*
X139220857Y-69338809D01*
X139201809Y-69376904D01*
X139163714Y-69395952D01*
X139106571Y-69395952D01*
X139068476Y-69376904D01*
X139049428Y-69357857D01*
X138916095Y-69129285D02*
X138763714Y-69129285D01*
X138858952Y-68995952D02*
X138858952Y-69338809D01*
X138839904Y-69376904D01*
X138801809Y-69395952D01*
X138763714Y-69395952D01*
X138154190Y-69376904D02*
X138192285Y-69395952D01*
X138268476Y-69395952D01*
X138306571Y-69376904D01*
X138325619Y-69357857D01*
X138344666Y-69319761D01*
X138344666Y-69205476D01*
X138325619Y-69167380D01*
X138306571Y-69148333D01*
X138268476Y-69129285D01*
X138192285Y-69129285D01*
X138154190Y-69148333D01*
X137982761Y-69395952D02*
X137982761Y-68995952D01*
X137811333Y-69395952D02*
X137811333Y-69186428D01*
X137830380Y-69148333D01*
X137868476Y-69129285D01*
X137925619Y-69129285D01*
X137963714Y-69148333D01*
X137982761Y-69167380D01*
X137468476Y-69376904D02*
X137506571Y-69395952D01*
X137582761Y-69395952D01*
X137620857Y-69376904D01*
X137639904Y-69338809D01*
X137639904Y-69186428D01*
X137620857Y-69148333D01*
X137582761Y-69129285D01*
X137506571Y-69129285D01*
X137468476Y-69148333D01*
X137449428Y-69186428D01*
X137449428Y-69224523D01*
X137639904Y-69262619D01*
X137125619Y-69376904D02*
X137163714Y-69395952D01*
X137239904Y-69395952D01*
X137278000Y-69376904D01*
X137297047Y-69338809D01*
X137297047Y-69186428D01*
X137278000Y-69148333D01*
X137239904Y-69129285D01*
X137163714Y-69129285D01*
X137125619Y-69148333D01*
X137106571Y-69186428D01*
X137106571Y-69224523D01*
X137297047Y-69262619D01*
X136954190Y-69376904D02*
X136916095Y-69395952D01*
X136839904Y-69395952D01*
X136801809Y-69376904D01*
X136782761Y-69338809D01*
X136782761Y-69319761D01*
X136801809Y-69281666D01*
X136839904Y-69262619D01*
X136897047Y-69262619D01*
X136935142Y-69243571D01*
X136954190Y-69205476D01*
X136954190Y-69186428D01*
X136935142Y-69148333D01*
X136897047Y-69129285D01*
X136839904Y-69129285D01*
X136801809Y-69148333D01*
X136458952Y-69376904D02*
X136497047Y-69395952D01*
X136573238Y-69395952D01*
X136611333Y-69376904D01*
X136630380Y-69338809D01*
X136630380Y-69186428D01*
X136611333Y-69148333D01*
X136573238Y-69129285D01*
X136497047Y-69129285D01*
X136458952Y-69148333D01*
X136439904Y-69186428D01*
X136439904Y-69224523D01*
X136630380Y-69262619D01*
X136268476Y-69357857D02*
X136249428Y-69376904D01*
X136268476Y-69395952D01*
X136287523Y-69376904D01*
X136268476Y-69357857D01*
X136268476Y-69395952D01*
D11*
X151712142Y-50178571D02*
X151712142Y-48678571D01*
X151355000Y-48678571D01*
X151140714Y-48750000D01*
X150997857Y-48892857D01*
X150926428Y-49035714D01*
X150855000Y-49321428D01*
X150855000Y-49535714D01*
X150926428Y-49821428D01*
X150997857Y-49964285D01*
X151140714Y-50107142D01*
X151355000Y-50178571D01*
X151712142Y-50178571D01*
X149640714Y-50107142D02*
X149783571Y-50178571D01*
X150069285Y-50178571D01*
X150212142Y-50107142D01*
X150283571Y-49964285D01*
X150283571Y-49392857D01*
X150212142Y-49250000D01*
X150069285Y-49178571D01*
X149783571Y-49178571D01*
X149640714Y-49250000D01*
X149569285Y-49392857D01*
X149569285Y-49535714D01*
X150283571Y-49678571D01*
X148997857Y-50107142D02*
X148855000Y-50178571D01*
X148569285Y-50178571D01*
X148426428Y-50107142D01*
X148355000Y-49964285D01*
X148355000Y-49892857D01*
X148426428Y-49750000D01*
X148569285Y-49678571D01*
X148783571Y-49678571D01*
X148926428Y-49607142D01*
X148997857Y-49464285D01*
X148997857Y-49392857D01*
X148926428Y-49250000D01*
X148783571Y-49178571D01*
X148569285Y-49178571D01*
X148426428Y-49250000D01*
X147712142Y-50178571D02*
X147712142Y-49178571D01*
X147712142Y-48678571D02*
X147783571Y-48750000D01*
X147712142Y-48821428D01*
X147640714Y-48750000D01*
X147712142Y-48678571D01*
X147712142Y-48821428D01*
X146355000Y-49178571D02*
X146355000Y-50392857D01*
X146426428Y-50535714D01*
X146497857Y-50607142D01*
X146640714Y-50678571D01*
X146855000Y-50678571D01*
X146997857Y-50607142D01*
X146355000Y-50107142D02*
X146497857Y-50178571D01*
X146783571Y-50178571D01*
X146926428Y-50107142D01*
X146997857Y-50035714D01*
X147069285Y-49892857D01*
X147069285Y-49464285D01*
X146997857Y-49321428D01*
X146926428Y-49250000D01*
X146783571Y-49178571D01*
X146497857Y-49178571D01*
X146355000Y-49250000D01*
X145640714Y-49178571D02*
X145640714Y-50178571D01*
X145640714Y-49321428D02*
X145569285Y-49250000D01*
X145426428Y-49178571D01*
X145212142Y-49178571D01*
X145069285Y-49250000D01*
X144997857Y-49392857D01*
X144997857Y-50178571D01*
X143712142Y-50107142D02*
X143855000Y-50178571D01*
X144140714Y-50178571D01*
X144283571Y-50107142D01*
X144355000Y-49964285D01*
X144355000Y-49392857D01*
X144283571Y-49250000D01*
X144140714Y-49178571D01*
X143855000Y-49178571D01*
X143712142Y-49250000D01*
X143640714Y-49392857D01*
X143640714Y-49535714D01*
X144355000Y-49678571D01*
X142355000Y-50178571D02*
X142355000Y-48678571D01*
X142355000Y-50107142D02*
X142497857Y-50178571D01*
X142783571Y-50178571D01*
X142926428Y-50107142D01*
X142997857Y-50035714D01*
X143069285Y-49892857D01*
X143069285Y-49464285D01*
X142997857Y-49321428D01*
X142926428Y-49250000D01*
X142783571Y-49178571D01*
X142497857Y-49178571D01*
X142355000Y-49250000D01*
X140497857Y-50178571D02*
X140497857Y-48678571D01*
X140497857Y-49250000D02*
X140355000Y-49178571D01*
X140069285Y-49178571D01*
X139926428Y-49250000D01*
X139855000Y-49321428D01*
X139783571Y-49464285D01*
X139783571Y-49892857D01*
X139855000Y-50035714D01*
X139926428Y-50107142D01*
X140069285Y-50178571D01*
X140355000Y-50178571D01*
X140497857Y-50107142D01*
X139283571Y-49178571D02*
X138926428Y-50178571D01*
X138569285Y-49178571D02*
X138926428Y-50178571D01*
X139069285Y-50535714D01*
X139140714Y-50607142D01*
X139283571Y-50678571D01*
X135926428Y-49464285D02*
X135997857Y-49392857D01*
X136140714Y-49321428D01*
X136283571Y-49321428D01*
X136426428Y-49392857D01*
X136497857Y-49464285D01*
X136569285Y-49607142D01*
X136569285Y-49750000D01*
X136497857Y-49892857D01*
X136426428Y-49964285D01*
X136283571Y-50035714D01*
X136140714Y-50035714D01*
X135997857Y-49964285D01*
X135926428Y-49892857D01*
X135926428Y-49321428D02*
X135926428Y-49892857D01*
X135855000Y-49964285D01*
X135783571Y-49964285D01*
X135640714Y-49892857D01*
X135569285Y-49750000D01*
X135569285Y-49392857D01*
X135712142Y-49178571D01*
X135926428Y-49035714D01*
X136212142Y-48964285D01*
X136497857Y-49035714D01*
X136712142Y-49178571D01*
X136855000Y-49392857D01*
X136926428Y-49678571D01*
X136855000Y-49964285D01*
X136712142Y-50178571D01*
X136497857Y-50321428D01*
X136212142Y-50392857D01*
X135926428Y-50321428D01*
X135712142Y-50178571D01*
X134926428Y-49178571D02*
X134926428Y-50464285D01*
X134997857Y-50607142D01*
X135140714Y-50678571D01*
X135212142Y-50678571D01*
X134926428Y-48678571D02*
X134997857Y-48750000D01*
X134926428Y-48821428D01*
X134855000Y-48750000D01*
X134926428Y-48678571D01*
X134926428Y-48821428D01*
X134212142Y-50178571D02*
X134212142Y-49178571D01*
X134212142Y-49464285D02*
X134140714Y-49321428D01*
X134069285Y-49250000D01*
X133926428Y-49178571D01*
X133783571Y-49178571D01*
X133426428Y-49178571D02*
X133140714Y-50178571D01*
X132855000Y-49464285D01*
X132569285Y-50178571D01*
X132283571Y-49178571D01*
X131712142Y-50178571D02*
X131712142Y-49178571D01*
X131712142Y-49464285D02*
X131640714Y-49321428D01*
X131569285Y-49250000D01*
X131426428Y-49178571D01*
X131283571Y-49178571D01*
D12*
G04 #@! TO.P,,2*
G04 #@! TO.N,Net-(BT2032-Pad2)*
X141478000Y-62611000D03*
D13*
G04 #@! TO.P,,1*
G04 #@! TO.N,Net-(BT2032-Pad1)*
X153478000Y-62611000D03*
X129478000Y-62611000D03*
G04 #@! TD*
D14*
G04 #@! TO.P,,1*
G04 #@! TO.N,N/C*
X141351000Y-40767000D03*
G04 #@! TD*
D15*
G04 #@! TO.P,,2*
G04 #@! TO.N,Net-(BT2032-Pad1)*
X155460000Y-47500000D03*
D16*
G04 #@! TO.P,,1*
G04 #@! TO.N,Net-(BT2032-Pad2)*
X158000000Y-47500000D03*
G04 #@! TD*
G04 #@! TO.P,,1*
G04 #@! TO.N,Net-(BT2032-Pad2)*
X158000000Y-77000000D03*
D15*
G04 #@! TO.P,,2*
G04 #@! TO.N,Net-(BT2032-Pad1)*
X155460000Y-77000000D03*
G04 #@! TD*
G04 #@! TO.P,,2*
G04 #@! TO.N,Net-(BT2032-Pad1)*
X121666000Y-62230000D03*
D16*
G04 #@! TO.P,,1*
G04 #@! TO.N,Net-(BT2032-Pad2)*
X119126000Y-62230000D03*
G04 #@! TD*
G04 #@! TO.P,,1*
G04 #@! TO.N,Net-(BT2032-Pad2)*
X164000000Y-62357000D03*
D15*
G04 #@! TO.P,,2*
G04 #@! TO.N,Net-(BT2032-Pad1)*
X161460000Y-62357000D03*
G04 #@! TD*
G04 #@! TO.P,,2*
G04 #@! TO.N,Net-(BT2032-Pad1)*
X127762000Y-77724000D03*
D16*
G04 #@! TO.P,,1*
G04 #@! TO.N,Net-(BT2032-Pad2)*
X125222000Y-77724000D03*
G04 #@! TD*
G04 #@! TO.P,,1*
G04 #@! TO.N,Net-(BT2032-Pad2)*
X125222000Y-47371000D03*
D15*
G04 #@! TO.P,,2*
G04 #@! TO.N,Net-(BT2032-Pad1)*
X127762000Y-47371000D03*
G04 #@! TD*
D17*
G04 #@! TO.N,Net-(BT2032-Pad2)*
X119297998Y-62230000D02*
X119126000Y-62230000D01*
X125222000Y-65000000D02*
X119000000Y-65000000D01*
X158000000Y-47500000D02*
X158000000Y-59500000D01*
X119000000Y-64500000D02*
X119000000Y-59500000D01*
X119000000Y-59500000D02*
X125222000Y-59500000D01*
X125222000Y-59500000D02*
X125222000Y-47371000D01*
X158000000Y-65500000D02*
X164000000Y-65500000D01*
X158000000Y-59500000D02*
X164000000Y-59500000D01*
X157400000Y-45000000D02*
X158000000Y-45600000D01*
X141500000Y-47500000D02*
X152000000Y-47500000D01*
X154500000Y-45000000D02*
X157400000Y-45000000D01*
X158000000Y-45600000D02*
X158000000Y-47500000D01*
X152000000Y-47500000D02*
X154500000Y-45000000D01*
X128000000Y-44500000D02*
X126193000Y-44500000D01*
X131000000Y-47500000D02*
X128000000Y-44500000D01*
X141500000Y-47500000D02*
X131000000Y-47500000D01*
X164000000Y-65500000D02*
X164000000Y-62357000D01*
X141500000Y-59609000D02*
X141500000Y-47500000D01*
X126193000Y-44500000D02*
X125222000Y-45471000D01*
X141478000Y-59631000D02*
X141500000Y-59609000D01*
X125222000Y-45471000D02*
X125222000Y-47371000D01*
X141478000Y-62611000D02*
X141478000Y-59631000D01*
X164000000Y-59500000D02*
X164000000Y-62357000D01*
X125222000Y-77724000D02*
X125222000Y-65000000D01*
X158000000Y-77000000D02*
X158000000Y-65500000D01*
G04 #@! TO.N,Net-(BT2032-Pad1)*
X127762000Y-77724000D02*
X154776000Y-77724000D01*
X154776000Y-77724000D02*
X155500000Y-77000000D01*
X127762000Y-62230000D02*
X127762000Y-77724000D01*
X127762000Y-47371000D02*
X127762000Y-62230000D01*
X161460000Y-62357000D02*
X153732000Y-62357000D01*
X153732000Y-62357000D02*
X153478000Y-62611000D01*
X121666000Y-62230000D02*
X127000000Y-62230000D01*
X127000000Y-62230000D02*
X127762000Y-62230000D01*
X153567000Y-62700000D02*
X153478000Y-62611000D01*
X155460000Y-62700000D02*
X153567000Y-62700000D01*
X155460000Y-62700000D02*
X155460000Y-77000000D01*
X155460000Y-47500000D02*
X155460000Y-62700000D01*
X129097000Y-62230000D02*
X129478000Y-62611000D01*
X127000000Y-62230000D02*
X129097000Y-62230000D01*
G04 #@! TD*
M02*
