G04 #@! TF.GenerationSoftware,KiCad,Pcbnew,(5.0.0)*
G04 #@! TF.CreationDate,2018-10-24T09:39:07-04:00*
G04 #@! TF.ProjectId,Interlock,496E7465726C6F636B2E6B696361645F,rev?*
G04 #@! TF.SameCoordinates,Original*
G04 #@! TF.FileFunction,Legend,Top*
G04 #@! TF.FilePolarity,Positive*
%FSLAX46Y46*%
G04 Gerber Fmt 4.6, Leading zero omitted, Abs format (unit mm)*
G04 Created by KiCad (PCBNEW (5.0.0)) date 10/24/18 09:39:07*
%MOMM*%
%LPD*%
G01*
G04 APERTURE LIST*
%ADD10C,0.500000*%
%ADD11C,0.120000*%
%ADD12C,0.150000*%
G04 APERTURE END LIST*
D10*
X131378714Y-51592952D02*
X131378714Y-49092952D01*
X132569190Y-51592952D02*
X132569190Y-49092952D01*
X133997761Y-51592952D01*
X133997761Y-49092952D01*
X134831095Y-49092952D02*
X136259666Y-49092952D01*
X135545380Y-51592952D02*
X135545380Y-49092952D01*
X137093000Y-50283428D02*
X137926333Y-50283428D01*
X138283476Y-51592952D02*
X137093000Y-51592952D01*
X137093000Y-49092952D01*
X138283476Y-49092952D01*
X140783476Y-51592952D02*
X139950142Y-50402476D01*
X139354904Y-51592952D02*
X139354904Y-49092952D01*
X140307285Y-49092952D01*
X140545380Y-49212000D01*
X140664428Y-49331047D01*
X140783476Y-49569142D01*
X140783476Y-49926285D01*
X140664428Y-50164380D01*
X140545380Y-50283428D01*
X140307285Y-50402476D01*
X139354904Y-50402476D01*
X143045380Y-51592952D02*
X141854904Y-51592952D01*
X141854904Y-49092952D01*
X144354904Y-49092952D02*
X144831095Y-49092952D01*
X145069190Y-49212000D01*
X145307285Y-49450095D01*
X145426333Y-49926285D01*
X145426333Y-50759619D01*
X145307285Y-51235809D01*
X145069190Y-51473904D01*
X144831095Y-51592952D01*
X144354904Y-51592952D01*
X144116809Y-51473904D01*
X143878714Y-51235809D01*
X143759666Y-50759619D01*
X143759666Y-49926285D01*
X143878714Y-49450095D01*
X144116809Y-49212000D01*
X144354904Y-49092952D01*
X147926333Y-51354857D02*
X147807285Y-51473904D01*
X147450142Y-51592952D01*
X147212047Y-51592952D01*
X146854904Y-51473904D01*
X146616809Y-51235809D01*
X146497761Y-50997714D01*
X146378714Y-50521523D01*
X146378714Y-50164380D01*
X146497761Y-49688190D01*
X146616809Y-49450095D01*
X146854904Y-49212000D01*
X147212047Y-49092952D01*
X147450142Y-49092952D01*
X147807285Y-49212000D01*
X147926333Y-49331047D01*
X148997761Y-51592952D02*
X148997761Y-49092952D01*
X150426333Y-51592952D02*
X149354904Y-50164380D01*
X150426333Y-49092952D02*
X148997761Y-50521523D01*
X130307285Y-60092952D02*
X129473952Y-58902476D01*
X128878714Y-60092952D02*
X128878714Y-57592952D01*
X129831095Y-57592952D01*
X130069190Y-57712000D01*
X130188238Y-57831047D01*
X130307285Y-58069142D01*
X130307285Y-58426285D01*
X130188238Y-58664380D01*
X130069190Y-58783428D01*
X129831095Y-58902476D01*
X128878714Y-58902476D01*
X131854904Y-57592952D02*
X132331095Y-57592952D01*
X132569190Y-57712000D01*
X132807285Y-57950095D01*
X132926333Y-58426285D01*
X132926333Y-59259619D01*
X132807285Y-59735809D01*
X132569190Y-59973904D01*
X132331095Y-60092952D01*
X131854904Y-60092952D01*
X131616809Y-59973904D01*
X131378714Y-59735809D01*
X131259666Y-59259619D01*
X131259666Y-58426285D01*
X131378714Y-57950095D01*
X131616809Y-57712000D01*
X131854904Y-57592952D01*
X135426333Y-59854857D02*
X135307285Y-59973904D01*
X134950142Y-60092952D01*
X134712047Y-60092952D01*
X134354904Y-59973904D01*
X134116809Y-59735809D01*
X133997761Y-59497714D01*
X133878714Y-59021523D01*
X133878714Y-58664380D01*
X133997761Y-58188190D01*
X134116809Y-57950095D01*
X134354904Y-57712000D01*
X134712047Y-57592952D01*
X134950142Y-57592952D01*
X135307285Y-57712000D01*
X135426333Y-57831047D01*
X136497761Y-60092952D02*
X136497761Y-57592952D01*
X136497761Y-58783428D02*
X137926333Y-58783428D01*
X137926333Y-60092952D02*
X137926333Y-57592952D01*
X139116809Y-58783428D02*
X139950142Y-58783428D01*
X140307285Y-60092952D02*
X139116809Y-60092952D01*
X139116809Y-57592952D01*
X140307285Y-57592952D01*
X141259666Y-59973904D02*
X141616809Y-60092952D01*
X142212047Y-60092952D01*
X142450142Y-59973904D01*
X142569190Y-59854857D01*
X142688238Y-59616761D01*
X142688238Y-59378666D01*
X142569190Y-59140571D01*
X142450142Y-59021523D01*
X142212047Y-58902476D01*
X141735857Y-58783428D01*
X141497761Y-58664380D01*
X141378714Y-58545333D01*
X141259666Y-58307238D01*
X141259666Y-58069142D01*
X141378714Y-57831047D01*
X141497761Y-57712000D01*
X141735857Y-57592952D01*
X142331095Y-57592952D01*
X142688238Y-57712000D01*
X143402523Y-57592952D02*
X144831095Y-57592952D01*
X144116809Y-60092952D02*
X144116809Y-57592952D01*
X145664428Y-58783428D02*
X146497761Y-58783428D01*
X146854904Y-60092952D02*
X145664428Y-60092952D01*
X145664428Y-57592952D01*
X146854904Y-57592952D01*
X149354904Y-60092952D02*
X148521571Y-58902476D01*
X147926333Y-60092952D02*
X147926333Y-57592952D01*
X148878714Y-57592952D01*
X149116809Y-57712000D01*
X149235857Y-57831047D01*
X149354904Y-58069142D01*
X149354904Y-58426285D01*
X149235857Y-58664380D01*
X149116809Y-58783428D01*
X148878714Y-58902476D01*
X147926333Y-58902476D01*
X150545380Y-57592952D02*
X150307285Y-58069142D01*
X151497761Y-59973904D02*
X151854904Y-60092952D01*
X152450142Y-60092952D01*
X152688238Y-59973904D01*
X152807285Y-59854857D01*
X152926333Y-59616761D01*
X152926333Y-59378666D01*
X152807285Y-59140571D01*
X152688238Y-59021523D01*
X152450142Y-58902476D01*
X151973952Y-58783428D01*
X151735857Y-58664380D01*
X151616809Y-58545333D01*
X151497761Y-58307238D01*
X151497761Y-58069142D01*
X151616809Y-57831047D01*
X151735857Y-57712000D01*
X151973952Y-57592952D01*
X152569190Y-57592952D01*
X152926333Y-57712000D01*
X128283476Y-64342952D02*
X128283476Y-61842952D01*
X128283476Y-63033428D02*
X129712047Y-63033428D01*
X129712047Y-64342952D02*
X129712047Y-61842952D01*
X130783476Y-63628666D02*
X131973952Y-63628666D01*
X130545380Y-64342952D02*
X131378714Y-61842952D01*
X132212047Y-64342952D01*
X134473952Y-64104857D02*
X134354904Y-64223904D01*
X133997761Y-64342952D01*
X133759666Y-64342952D01*
X133402523Y-64223904D01*
X133164428Y-63985809D01*
X133045380Y-63747714D01*
X132926333Y-63271523D01*
X132926333Y-62914380D01*
X133045380Y-62438190D01*
X133164428Y-62200095D01*
X133402523Y-61962000D01*
X133759666Y-61842952D01*
X133997761Y-61842952D01*
X134354904Y-61962000D01*
X134473952Y-62081047D01*
X135545380Y-64342952D02*
X135545380Y-61842952D01*
X136973952Y-64342952D02*
X135902523Y-62914380D01*
X136973952Y-61842952D02*
X135545380Y-63271523D01*
X138045380Y-63033428D02*
X138878714Y-63033428D01*
X139235857Y-64342952D02*
X138045380Y-64342952D01*
X138045380Y-61842952D01*
X139235857Y-61842952D01*
X141735857Y-64342952D02*
X140902523Y-63152476D01*
X140307285Y-64342952D02*
X140307285Y-61842952D01*
X141259666Y-61842952D01*
X141497761Y-61962000D01*
X141616809Y-62081047D01*
X141735857Y-62319142D01*
X141735857Y-62676285D01*
X141616809Y-62914380D01*
X141497761Y-63033428D01*
X141259666Y-63152476D01*
X140307285Y-63152476D01*
X142688238Y-64223904D02*
X143045380Y-64342952D01*
X143640619Y-64342952D01*
X143878714Y-64223904D01*
X143997761Y-64104857D01*
X144116809Y-63866761D01*
X144116809Y-63628666D01*
X143997761Y-63390571D01*
X143878714Y-63271523D01*
X143640619Y-63152476D01*
X143164428Y-63033428D01*
X142926333Y-62914380D01*
X142807285Y-62795333D01*
X142688238Y-62557238D01*
X142688238Y-62319142D01*
X142807285Y-62081047D01*
X142926333Y-61962000D01*
X143164428Y-61842952D01*
X143759666Y-61842952D01*
X144116809Y-61962000D01*
X145188238Y-64342952D02*
X145188238Y-61842952D01*
X146140619Y-61842952D01*
X146378714Y-61962000D01*
X146497761Y-62081047D01*
X146616809Y-62319142D01*
X146616809Y-62676285D01*
X146497761Y-62914380D01*
X146378714Y-63033428D01*
X146140619Y-63152476D01*
X145188238Y-63152476D01*
X147569190Y-63628666D02*
X148759666Y-63628666D01*
X147331095Y-64342952D02*
X148164428Y-61842952D01*
X148997761Y-64342952D01*
X151259666Y-64104857D02*
X151140619Y-64223904D01*
X150783476Y-64342952D01*
X150545380Y-64342952D01*
X150188238Y-64223904D01*
X149950142Y-63985809D01*
X149831095Y-63747714D01*
X149712047Y-63271523D01*
X149712047Y-62914380D01*
X149831095Y-62438190D01*
X149950142Y-62200095D01*
X150188238Y-61962000D01*
X150545380Y-61842952D01*
X150783476Y-61842952D01*
X151140619Y-61962000D01*
X151259666Y-62081047D01*
X152331095Y-63033428D02*
X153164428Y-63033428D01*
X153521571Y-64342952D02*
X152331095Y-64342952D01*
X152331095Y-61842952D01*
X153521571Y-61842952D01*
X126676333Y-72842952D02*
X126676333Y-71176285D01*
X126676333Y-70342952D02*
X126557285Y-70462000D01*
X126676333Y-70581047D01*
X126795380Y-70462000D01*
X126676333Y-70342952D01*
X126676333Y-70581047D01*
X127866809Y-71176285D02*
X127866809Y-72842952D01*
X127866809Y-71414380D02*
X127985857Y-71295333D01*
X128223952Y-71176285D01*
X128581095Y-71176285D01*
X128819190Y-71295333D01*
X128938238Y-71533428D01*
X128938238Y-72842952D01*
X129771571Y-71176285D02*
X130723952Y-71176285D01*
X130128714Y-70342952D02*
X130128714Y-72485809D01*
X130247761Y-72723904D01*
X130485857Y-72842952D01*
X130723952Y-72842952D01*
X132509666Y-72723904D02*
X132271571Y-72842952D01*
X131795380Y-72842952D01*
X131557285Y-72723904D01*
X131438238Y-72485809D01*
X131438238Y-71533428D01*
X131557285Y-71295333D01*
X131795380Y-71176285D01*
X132271571Y-71176285D01*
X132509666Y-71295333D01*
X132628714Y-71533428D01*
X132628714Y-71771523D01*
X131438238Y-72009619D01*
X133700142Y-72842952D02*
X133700142Y-71176285D01*
X133700142Y-71652476D02*
X133819190Y-71414380D01*
X133938238Y-71295333D01*
X134176333Y-71176285D01*
X134414428Y-71176285D01*
X135604904Y-72842952D02*
X135366809Y-72723904D01*
X135247761Y-72485809D01*
X135247761Y-70342952D01*
X136914428Y-72842952D02*
X136676333Y-72723904D01*
X136557285Y-72604857D01*
X136438238Y-72366761D01*
X136438238Y-71652476D01*
X136557285Y-71414380D01*
X136676333Y-71295333D01*
X136914428Y-71176285D01*
X137271571Y-71176285D01*
X137509666Y-71295333D01*
X137628714Y-71414380D01*
X137747761Y-71652476D01*
X137747761Y-72366761D01*
X137628714Y-72604857D01*
X137509666Y-72723904D01*
X137271571Y-72842952D01*
X136914428Y-72842952D01*
X139890619Y-72723904D02*
X139652523Y-72842952D01*
X139176333Y-72842952D01*
X138938238Y-72723904D01*
X138819190Y-72604857D01*
X138700142Y-72366761D01*
X138700142Y-71652476D01*
X138819190Y-71414380D01*
X138938238Y-71295333D01*
X139176333Y-71176285D01*
X139652523Y-71176285D01*
X139890619Y-71295333D01*
X140962047Y-72842952D02*
X140962047Y-70342952D01*
X141200142Y-71890571D02*
X141914428Y-72842952D01*
X141914428Y-71176285D02*
X140962047Y-72128666D01*
X142985857Y-72842952D02*
X142985857Y-71176285D01*
X142985857Y-71652476D02*
X143104904Y-71414380D01*
X143223952Y-71295333D01*
X143462047Y-71176285D01*
X143700142Y-71176285D01*
X144890619Y-72842952D02*
X144652523Y-72723904D01*
X144533476Y-72604857D01*
X144414428Y-72366761D01*
X144414428Y-71652476D01*
X144533476Y-71414380D01*
X144652523Y-71295333D01*
X144890619Y-71176285D01*
X145247761Y-71176285D01*
X145485857Y-71295333D01*
X145604904Y-71414380D01*
X145723952Y-71652476D01*
X145723952Y-72366761D01*
X145604904Y-72604857D01*
X145485857Y-72723904D01*
X145247761Y-72842952D01*
X144890619Y-72842952D01*
X147866809Y-72723904D02*
X147628714Y-72842952D01*
X147152523Y-72842952D01*
X146914428Y-72723904D01*
X146795380Y-72604857D01*
X146676333Y-72366761D01*
X146676333Y-71652476D01*
X146795380Y-71414380D01*
X146914428Y-71295333D01*
X147152523Y-71176285D01*
X147628714Y-71176285D01*
X147866809Y-71295333D01*
X148938238Y-72604857D02*
X149057285Y-72723904D01*
X148938238Y-72842952D01*
X148819190Y-72723904D01*
X148938238Y-72604857D01*
X148938238Y-72842952D01*
X150485857Y-72842952D02*
X150247761Y-72723904D01*
X150128714Y-72604857D01*
X150009666Y-72366761D01*
X150009666Y-71652476D01*
X150128714Y-71414380D01*
X150247761Y-71295333D01*
X150485857Y-71176285D01*
X150843000Y-71176285D01*
X151081095Y-71295333D01*
X151200142Y-71414380D01*
X151319190Y-71652476D01*
X151319190Y-72366761D01*
X151200142Y-72604857D01*
X151081095Y-72723904D01*
X150843000Y-72842952D01*
X150485857Y-72842952D01*
X152390619Y-72842952D02*
X152390619Y-71176285D01*
X152390619Y-71652476D02*
X152509666Y-71414380D01*
X152628714Y-71295333D01*
X152866809Y-71176285D01*
X153104904Y-71176285D01*
X155009666Y-71176285D02*
X155009666Y-73200095D01*
X154890619Y-73438190D01*
X154771571Y-73557238D01*
X154533476Y-73676285D01*
X154176333Y-73676285D01*
X153938238Y-73557238D01*
X155009666Y-72723904D02*
X154771571Y-72842952D01*
X154295380Y-72842952D01*
X154057285Y-72723904D01*
X153938238Y-72604857D01*
X153819190Y-72366761D01*
X153819190Y-71652476D01*
X153938238Y-71414380D01*
X154057285Y-71295333D01*
X154295380Y-71176285D01*
X154771571Y-71176285D01*
X155009666Y-71295333D01*
D11*
G04 #@! TO.C,*
X143637000Y-40767000D02*
G75*
G03X143637000Y-40767000I-2286000J0D01*
G01*
D12*
G04 #@! TD*
M02*
