G04 #@! TF.GenerationSoftware,KiCad,Pcbnew,(5.0.0)*
G04 #@! TF.CreationDate,2018-10-24T09:39:07-04:00*
G04 #@! TF.ProjectId,Interlock,496E7465726C6F636B2E6B696361645F,rev?*
G04 #@! TF.SameCoordinates,Original*
G04 #@! TF.FileFunction,Profile,NP*
%FSLAX46Y46*%
G04 Gerber Fmt 4.6, Leading zero omitted, Abs format (unit mm)*
G04 Created by KiCad (PCBNEW (5.0.0)) date 10/24/18 09:39:07*
%MOMM*%
%LPD*%
G01*
G04 APERTURE LIST*
%ADD10C,0.500000*%
G04 APERTURE END LIST*
D10*
X160958912Y-67898430D02*
X166483014Y-67064560D01*
X162522318Y-76862030D02*
X159187167Y-72171810D01*
X159187167Y-72171810D02*
X160190295Y-70113247D01*
X160190295Y-70113247D02*
X160958912Y-67898430D01*
X156060349Y-83324000D02*
X162522318Y-76862030D01*
X136048721Y-81864940D02*
X136986765Y-87388870D01*
X160854746Y-56954570D02*
X160086104Y-54700634D01*
X122850851Y-70217481D02*
X123854136Y-72275980D01*
X151265776Y-44759990D02*
X149168241Y-43756839D01*
X146992582Y-42988070D02*
X146054532Y-37464140D01*
X116453941Y-57892620D02*
X116453941Y-67064560D01*
X151370125Y-79988850D02*
X156060349Y-83324000D01*
X149272499Y-80991984D02*
X151370125Y-79988850D01*
X147096748Y-81760600D02*
X149272499Y-80991984D01*
X146158705Y-87388870D02*
X147096748Y-81760600D01*
X136986765Y-87388870D02*
X146158705Y-87388870D01*
X133781754Y-81096171D02*
X136048721Y-81864940D01*
X123854136Y-52681200D02*
X122850983Y-54791842D01*
X123854136Y-72275980D02*
X120518803Y-76966210D01*
X149168241Y-43756839D02*
X146992582Y-42988070D01*
X166483014Y-67064560D02*
X166483014Y-57892620D01*
X146054532Y-37464140D02*
X136882416Y-37464140D01*
X166483014Y-57892620D02*
X160854746Y-56954570D01*
X131671179Y-80093020D02*
X133781754Y-81096171D01*
X122082209Y-57058740D02*
X116453941Y-57892620D01*
X162418152Y-48095320D02*
X155956000Y-41529000D01*
X126980948Y-83428350D02*
X131671179Y-80093020D01*
X127085121Y-41633170D02*
X120518803Y-48095320D01*
X136882416Y-37464140D02*
X135944373Y-43092410D01*
X120518803Y-76966210D02*
X126980948Y-83428350D01*
X122082209Y-68002600D02*
X122850851Y-70217481D01*
X160086104Y-54700634D02*
X159082819Y-52681200D01*
X116453941Y-67064560D02*
X122082209Y-68002600D01*
X133729583Y-43861025D02*
X131671179Y-44864150D01*
X122850983Y-54791842D02*
X122082209Y-57058740D01*
X131671179Y-44864150D02*
X127085121Y-41633170D01*
X135944373Y-43092410D02*
X133729583Y-43861025D01*
X120518803Y-48095320D02*
X123854136Y-52681200D01*
X159082819Y-52681200D02*
X162418152Y-48095320D01*
X155956000Y-41529000D02*
X151265776Y-44759990D01*
M02*
